# xmcd
#
# Track frame offsets:
#	150
#	12109
#	22327
#	28995
#	43855
#	58416
#	69720
#	81583
#	93348
#	105797
#	118258
#	130997
#	142395
#	154565
#	165870
#	179978
#	188517
#	198944
#	209969
#	216270
#
# Disc length: 3059 seconds
#
# Revision: 4
# Processed by: cddbd v1.5.2PL0 Copyright (c) Steve Scherf et al.
# Submitted via: audiograbber 1.83.01
#
DISCID=380bf114
DTITLE=Various Artist - 100 Country Greats (Disc:5)
DYEAR=2006
DGENRE=Country
TTITLE0=Slim Whitman - Now Is The Hour
TTITLE1=Waylon Jennings - Sally Was A Good Old Girl
TTITLE2=Willie Nelson - I've Seen All The World I Care To See
TTITLE3=Kenny Rogers - For The Good Times
TTITLE4=Lynn Anderson - Gone At Last
TTITLE5=Kitty Wells - It Wasn't God Who Made Honky Tonk Angels
TTITLE6=Dolly Parton - Making Believe
TTITLE7=Kenny Rogers - Me and Bobby McGee
TTITLE8=Billie Jo Spears - The Cheatin' Kind
TTITLE9=Frankie Laine - Moonlight Gambler
TTITLE10=Lynn Anderson - Top Of The World
TTITLE11=Kenny Rogers - Poem For My Little Lady
TTITLE12=Hank Williams - Your Cheatin' Heart
TTITLE13=Patsy Cline - Just Out Of Reach
TTITLE14=Frankie Laine - Don't Fence Me In
TTITLE15=Willie Nelson - I'm Lonesome
TTITLE16=Waylon Jennings - Lorena
TTITLE17=Patsy Cline - Don't Ever Leave Me Again
TTITLE18=Willie Nelson - Undo The Wrong, Undo The Right
TTITLE19=Slim Whitman - Till I Can Waltz With You Again
EXTD=
EXTT0=
EXTT1=
EXTT2=
EXTT3=
EXTT4=
EXTT5=
EXTT6=
EXTT7=
EXTT8=
EXTT9=
EXTT10=
EXTT11=
EXTT12=
EXTT13=
EXTT14=
EXTT15=
EXTT16=
EXTT17=
EXTT18=
EXTT19=
PLAYORDER=
